<svg xmlns="http://www.w3.org/2000/svg" width="30" height="25" viewBox="0 0 30 25">
  <g id="Basket" transform="translate(-300 -6.25)">
    <path id="Icon_awesome-shopping-basket" data-name="Icon awesome-shopping-basket" d="M30,12.518v.893a1.3,1.3,0,0,1-1.25,1.339h-.417l-1.36,10.2a2.563,2.563,0,0,1-2.475,2.3H5.5a2.563,2.563,0,0,1-2.475-2.3l-1.36-10.2H1.25A1.3,1.3,0,0,1,0,13.411v-.893a1.3,1.3,0,0,1,1.25-1.339H4.757l5.561-8.193a1.6,1.6,0,0,1,2.328-.394,1.87,1.87,0,0,1,.368,2.494L8.879,11.178H21.121L16.985,5.086a1.87,1.87,0,0,1,.368-2.494,1.6,1.6,0,0,1,2.328.394l5.561,8.193H28.75A1.3,1.3,0,0,1,30,12.518ZM16.25,22.339v-6.25a1.253,1.253,0,1,0-2.5,0v6.25a1.253,1.253,0,1,0,2.5,0Zm5.833,0v-6.25a1.253,1.253,0,1,0-2.5,0v6.25a1.253,1.253,0,1,0,2.5,0Zm-11.667,0v-6.25a1.3,1.3,0,0,0-1.25-1.339,1.3,1.3,0,0,0-1.25,1.339v6.25a1.3,1.3,0,0,0,1.25,1.339A1.3,1.3,0,0,0,10.417,22.339Z" transform="translate(300 4)" fill="#fff"/>
  </g>
</svg>
