<svg xmlns="http://www.w3.org/2000/svg" width="8" height="30" viewBox="0 0 8 30">
  <path id="Icon_awesome-ellipsis-v" data-name="Icon awesome-ellipsis-v" d="M5.688,11.208a4.186,4.186,0,0,1,4,4.355,4.186,4.186,0,0,1-4,4.355,4.186,4.186,0,0,1-4-4.355A4.186,4.186,0,0,1,5.688,11.208Zm-4-6.29a4.186,4.186,0,0,0,4,4.355,4.186,4.186,0,0,0,4-4.355,4.186,4.186,0,0,0-4-4.355A4.186,4.186,0,0,0,1.688,4.917Zm0,21.29a4.186,4.186,0,0,0,4,4.355,4.186,4.186,0,0,0,4-4.355,4.186,4.186,0,0,0-4-4.355A4.186,4.186,0,0,0,1.688,26.208Z" transform="translate(-1.688 -0.563)" fill="#fff"/>
</svg>
